<svg width="60" height="60" viewBox="0 0 60 60" fill="none" xmlns="http://www.w3.org/2000/svg">
<path d="M56.4825 25.2751C56.32 25.1676 54.97 24.1151 52.0575 24.1151C51.3 24.1151 50.5425 24.1951 49.7875 24.3301C49.22 20.5501 46.0625 18.6351 45.9275 18.5551L45.145 18.0951L44.6575 18.8226C43.992 19.7923 43.5247 20.8841 43.2825 22.0351C42.7425 24.1951 43.065 26.2476 44.1725 28.0026C42.8475 28.7576 40.69 28.9476 40.23 28.9476H4.67499C4.45338 28.9492 4.23426 28.9945 4.03015 29.0808C3.82604 29.1671 3.64093 29.2928 3.48539 29.4507C3.32985 29.6085 3.20693 29.7955 3.12364 30.0008C3.04036 30.2062 2.99834 30.426 2.99999 30.6476C2.99999 33.7526 3.48749 36.8551 4.56749 39.7726C5.78249 42.9851 7.61749 45.3601 9.96749 46.8176C12.6125 48.4376 16.96 49.3551 21.9 49.3551C24.0325 49.3551 26.245 49.1676 28.4325 48.7626C31.4627 48.2238 34.3767 47.164 37.045 45.6301C39.2582 44.3643 41.2392 42.73 42.9025 40.7976C45.7375 37.6401 47.41 34.0476 48.6275 30.9451H49.1375C52.215 30.9451 54.1325 29.7026 55.1875 28.6501C55.8875 28.0001 56.4 27.2201 56.7775 26.3001L56.995 25.6526L56.4825 25.2776M7.99749 27.9451H12.7475C12.8612 27.9419 12.9694 27.8953 13.0498 27.8149C13.1303 27.7345 13.1768 27.6263 13.18 27.5126V23.2501C13.1768 23.1364 13.1303 23.0282 13.0498 22.9477C12.9694 22.8673 12.8612 22.8207 12.7475 22.8176H7.99999C7.94291 22.8166 7.88621 22.8271 7.83328 22.8484C7.78035 22.8698 7.73226 22.9016 7.6919 22.942C7.65153 22.9824 7.61971 23.0304 7.59834 23.0834C7.57696 23.1363 7.56647 23.193 7.56749 23.2501V27.5151C7.59249 27.7601 7.75499 27.9476 7.99999 27.9476M14.56 27.9476H19.31C19.4237 27.9444 19.5319 27.8978 19.6123 27.8174C19.6928 27.737 19.7393 27.6288 19.7425 27.5151V23.2501C19.7393 23.1364 19.6928 23.0282 19.6123 22.9477C19.5319 22.8673 19.4237 22.8207 19.31 22.8176H14.56C14.5029 22.8166 14.4462 22.8271 14.3933 22.8484C14.3403 22.8698 14.2923 22.9016 14.2519 22.942C14.2115 22.9824 14.1797 23.0304 14.1583 23.0834C14.137 23.1363 14.1265 23.193 14.1275 23.2501V27.5151C14.1525 27.7601 14.315 27.9476 14.56 27.9476ZM21.2275 27.9476H25.9525C26.2225 27.9476 26.41 27.7601 26.41 27.5151V23.2501C26.4097 23.1912 26.3975 23.133 26.3741 23.079C26.3507 23.025 26.3166 22.9763 26.2738 22.9359C26.2311 22.8955 26.1805 22.8641 26.1253 22.8438C26.0701 22.8234 26.0113 22.8145 25.9525 22.8176H21.225C21.0075 22.8176 20.82 23.0076 20.82 23.2501V27.5151C20.82 27.7601 20.9825 27.9476 21.225 27.9476M27.8125 27.9476H32.5875C32.6987 27.9437 32.8038 27.896 32.8801 27.8151C32.9564 27.7341 32.9977 27.6263 32.995 27.5151V23.2501C32.995 23.0351 32.8325 22.8176 32.59 22.8176H27.8125C27.595 22.8176 27.4075 23.0076 27.4075 23.2501V27.5151C27.4075 27.7601 27.595 27.9476 27.8125 27.9476ZM14.5575 21.9001H19.3075C19.525 21.9001 19.74 21.6576 19.74 21.4151V17.1751C19.7407 17.1182 19.7299 17.0618 19.7084 17.0091C19.6869 16.9565 19.655 16.9087 19.6147 16.8686C19.5743 16.8285 19.5264 16.7969 19.4736 16.7757C19.4208 16.7545 19.3643 16.7441 19.3075 16.7451H14.5575C14.3125 16.7451 14.125 16.9051 14.125 17.1751V21.4151C14.15 21.6576 14.3125 21.9001 14.5575 21.9001ZM21.225 21.9001H25.95C26.22 21.9001 26.4075 21.6576 26.4075 21.4151V17.1751C26.4075 16.9326 26.245 16.7451 25.95 16.7451H21.225C21.0075 16.7451 20.82 16.9051 20.82 17.1751V21.4151C20.82 21.6576 20.9825 21.9001 21.225 21.9001ZM27.8125 21.9001H32.5875C32.805 21.9001 32.995 21.6576 32.995 21.4151V17.1751C32.9977 17.0645 32.9567 16.9574 32.8808 16.8769C32.805 16.7963 32.7005 16.749 32.59 16.7451H27.8125C27.595 16.7451 27.4075 16.9051 27.4075 17.1751V21.4151C27.4075 21.6576 27.595 21.9001 27.8125 21.9001ZM27.8125 15.7451H32.5875C32.6987 15.7412 32.8038 15.6935 32.8801 15.6126C32.9564 15.5316 32.9977 15.4238 32.995 15.3126V11.1026C32.995 10.8326 32.805 10.6426 32.59 10.6426H27.8125C27.595 10.6426 27.4075 10.8051 27.4075 11.1026V15.3126C27.4075 15.5301 27.595 15.7451 27.8125 15.7451ZM34.4525 27.9476H39.2025C39.2596 27.9486 39.3163 27.9381 39.3692 27.9167C39.4221 27.8954 39.4702 27.8635 39.5106 27.8232C39.5509 27.7828 39.5828 27.7347 39.6041 27.6818C39.6255 27.6289 39.636 27.5722 39.635 27.5151V23.2501C39.6319 23.1368 39.5856 23.029 39.5057 22.9486C39.4258 22.8682 39.3183 22.8214 39.205 22.8176H34.45C34.235 22.8176 34.045 23.0076 34.045 23.2501V27.5151C34.045 27.7576 34.235 27.9476 34.45 27.9476" fill="#0087C9"/>
</svg>
