<svg width="60" height="60" viewBox="0 0 60 60" fill="none" xmlns="http://www.w3.org/2000/svg">
<path d="M19.4956 24.172L29.5152 18.3872C29.6384 18.316 29.7782 18.2786 29.9205 18.2786C30.0628 18.2786 30.2026 18.316 30.3258 18.3872L40.3458 24.172C40.469 24.2432 40.5713 24.3455 40.6424 24.4687C40.7135 24.592 40.751 24.7317 40.751 24.874V36.4436C40.7508 36.5859 40.7133 36.7256 40.6422 36.8488C40.571 36.972 40.4688 37.0744 40.3456 37.1456L30.3258 42.9304C30.2026 43.0016 30.0628 43.039 29.9205 43.039C29.7782 43.039 29.6384 43.0016 29.5152 42.9304L19.4956 37.1456C19.3724 37.0744 19.2701 36.9721 19.199 36.8488C19.1279 36.7256 19.0904 36.5859 19.0904 36.4436V24.874C19.0905 24.7317 19.1279 24.592 19.1991 24.4688C19.2702 24.3456 19.3724 24.2432 19.4956 24.172Z" fill="#7986CB"/>
<path d="M55.9726 29.442L44.001 8.61541C43.5662 7.86241 42.763 7.30701 41.8934 7.30701H17.949C17.0792 7.30701 16.2758 7.86241 15.841 8.61541L3.8694 29.3966C3.4346 30.1498 3.4346 31.1006 3.8694 31.8536L15.841 52.51C16.2758 53.263 17.0792 53.648 17.949 53.648H41.8934C42.7628 53.648 43.5664 53.2746 44.001 52.5214L55.9726 31.8314C56.4078 31.0786 56.4078 30.1954 55.9726 29.4426M46.0596 39.4576C46.0596 39.7636 45.8754 40.047 45.6098 40.2002L30.3608 48.9982C30.2295 49.0735 30.0808 49.1131 29.9294 49.1131C29.778 49.1131 29.6293 49.0735 29.498 48.9982L14.2372 40.2002C13.972 40.047 13.7864 39.764 13.7864 39.4576V21.8614C13.7864 21.555 13.9692 21.272 14.2346 21.1186L29.4832 12.3206C29.6144 12.2453 29.763 12.2057 29.9143 12.2057C30.0656 12.2057 30.2142 12.2453 30.3454 12.3206L45.6074 21.1186C45.8728 21.272 46.0596 21.555 46.0596 21.8614V39.4576Z" fill="#3F51B5"/>
</svg>
