<svg width="60" height="60" viewBox="0 0 60 60" fill="none" xmlns="http://www.w3.org/2000/svg">
<path d="M22.045 54.025C26.4375 54.025 30.0025 50.4375 30.0025 46.0175V38.01H22.045C17.6575 38.01 14.0925 41.595 14.0925 46.0175C14.0925 50.44 17.6575 54.0275 22.045 54.0275V54.025Z" fill="#00E676"/>
<path d="M14.0925 29.9999C14.0925 25.5799 17.6575 21.9924 22.045 21.9924H30.0025V38.0099H22.045C17.6575 38.0099 14.0925 34.4224 14.0925 29.9999Z" fill="#7C4DFF"/>
<path d="M14.0925 13.9851C14.0925 9.5651 17.6575 5.9751 22.045 5.9751H30.0025V21.9926H22.045C17.6575 21.9926 14.0925 18.4051 14.0925 13.9851Z" fill="#F4511E"/>
<path d="M30 5.9751H37.955C42.345 5.9751 45.91 9.5651 45.91 13.9851C45.91 18.4051 42.345 21.9926 37.955 21.9926H30V5.9751Z" fill="#FF8A65"/>
<path d="M45.91 29.9999C45.91 34.4224 42.345 38.0099 37.955 38.0099C33.565 38.0099 30 34.4224 30 29.9999C30 25.5774 33.565 21.9924 37.955 21.9924C42.345 21.9924 45.91 25.5799 45.91 29.9999Z" fill="#29B6F6"/>
</svg>
