<svg width="60" height="60" viewBox="0 0 60 60" fill="none" xmlns="http://www.w3.org/2000/svg">
<path d="M51.075 30H37.6628V33.8315H46.86C45.5186 39.5786 41.3036 44.3701 35.7471 46.2858L13.7143 24.2529C16.0136 17.5458 22.5278 12.7565 30 12.7565C35.7471 12.7565 40.92 15.6322 44.1771 20.0379L47.0507 17.5479C43.2214 12.375 37.0886 8.92505 30 8.92505C20.0357 8.92505 11.6078 16.0136 9.50142 25.4036L34.7893 50.6915C43.9864 48.3922 51.075 39.9622 51.075 30ZM8.92499 30.1929C8.92499 35.5565 11.0336 40.7293 15.0557 44.7515C19.0778 48.7736 24.4436 50.8822 29.6164 50.8822L8.92499 30.1929Z" fill="white"/>
<path d="M30 3.17798C15.2478 3.17798 3.17786 15.2479 3.17786 30.0001C3.17786 44.7522 15.2478 56.8222 30 56.8222C44.7521 56.8222 56.8221 44.7522 56.8221 30.0001C56.8221 15.2479 44.7521 3.17798 30 3.17798ZM15.0562 44.9438C11.0329 40.9205 8.92545 35.5561 8.92545 30.3832L29.8084 51.0746C24.4439 50.883 19.0795 48.9671 15.0562 44.9438ZM34.598 50.4998L9.50021 25.402C11.6077 16.0143 20.0375 8.92557 30 8.92557C37.0887 8.92557 43.2194 12.3741 47.0511 17.547L44.1773 20.0376C40.9204 15.6311 35.7475 12.7573 30 12.7573C22.5281 12.7573 16.2057 17.547 13.7151 24.2525L35.7475 46.2849C41.3036 44.3691 45.5185 39.5794 46.8596 33.8318H37.6634V30.0001H51.0745C51.0745 39.9626 43.9858 48.3924 34.598 50.4998Z" fill="#663399"/>
</svg>
