<svg width="60" height="60" viewBox="0 0 60 60" fill="none" xmlns="http://www.w3.org/2000/svg">
<path d="M6.49999 26.475L20.95 12L25.175 16.25C24.575 18.375 25.55 20.7 27.5 21.825V35.6751C26 36.5251 25 38.1501 25 40C25 41.3261 25.5268 42.5979 26.4645 43.5356C27.4021 44.4733 28.6739 45 30 45C31.3261 45 32.5978 44.4733 33.5355 43.5356C34.4732 42.5979 35 41.3261 35 40C35 38.1501 34 36.5251 32.5 35.6751V23.525L37.675 28.75C37.5 29.125 37.5 29.55 37.5 30C37.5 31.3261 38.0268 32.5979 38.9645 33.5356C39.9021 34.4733 41.1739 35 42.5 35C43.8261 35 45.0978 34.4733 46.0355 33.5356C46.9732 32.5979 47.5 31.3261 47.5 30C47.5 28.674 46.9732 27.4022 46.0355 26.4645C45.0978 25.5268 43.8261 25 42.5 25C42.05 25 41.625 25 41.25 25.175L34.825 18.75C35.1354 17.5921 35.0151 16.3609 34.4863 15.285C33.9576 14.2091 33.0563 13.3617 31.95 12.9C30.875 12.5 29.75 12.4 28.75 12.675L24.5 8.45005L26.475 6.50005C28.425 4.52505 31.575 4.52505 33.525 6.50005L53.5 26.475C55.475 28.4251 55.475 31.575 53.5 33.525L33.525 53.5C31.575 55.475 28.425 55.475 26.475 53.5L6.49999 33.525C4.52499 31.575 4.52499 28.4251 6.49999 26.475Z" fill="#E64A19"/>
</svg>
