<svg width="60" height="60" viewBox="0 0 60 60" fill="none" xmlns="http://www.w3.org/2000/svg">
<path d="M7.5 7.5H52.5V52.5H7.5V7.5ZM19.325 45.1C20.325 47.225 22.3 48.975 25.675 48.975C29.425 48.975 32 46.975 32 42.6V28.15H27.75V42.5C27.75 44.65 26.875 45.2 25.5 45.2C24.05 45.2 23.45 44.2 22.775 43.025L19.325 45.1ZM34.275 44.65C35.525 47.1 38.05 48.975 42 48.975C46 48.975 49 46.9 49 43.075C49 39.55 46.975 37.975 43.375 36.425L42.325 35.975C40.5 35.2 39.725 34.675 39.725 33.425C39.725 32.4 40.5 31.6 41.75 31.6C42.95 31.6 43.75 32.125 44.475 33.425L47.75 31.25C46.375 28.85 44.425 27.925 41.75 27.925C37.975 27.925 35.55 30.325 35.55 33.5C35.55 36.95 37.575 38.575 40.625 39.875L41.675 40.325C43.625 41.175 44.775 41.7 44.775 43.15C44.775 44.35 43.65 45.225 41.9 45.225C39.825 45.225 38.625 44.15 37.725 42.65L34.275 44.65Z" fill="#FFCA28"/>
</svg>
