<svg width="60" height="60" viewBox="0 0 60 60" fill="none" xmlns="http://www.w3.org/2000/svg">
<path d="M49.2857 13.2858H46.7143C46.0042 13.2858 45.4286 13.8614 45.4286 14.5715C45.4286 15.2816 46.0042 15.8572 46.7143 15.8572H49.2857C49.9958 15.8572 50.5714 15.2816 50.5714 14.5715C50.5714 13.8614 49.9958 13.2858 49.2857 13.2858Z" fill="#56B3B4"/>
<path d="M21 54.4286H8.14286C7.43278 54.4286 6.85714 55.0042 6.85714 55.7143C6.85714 56.4244 7.43278 57 8.14286 57H21C21.7101 57 22.2857 56.4244 22.2857 55.7143C22.2857 55.0042 21.7101 54.4286 21 54.4286Z" fill="#EA5E5E"/>
<path d="M46.7143 33.8572H39C38.2899 33.8572 37.7143 34.4328 37.7143 35.1429C37.7143 35.853 38.2899 36.4286 39 36.4286H46.7143C47.4244 36.4286 48 35.853 48 35.1429C48 34.4328 47.4244 33.8572 46.7143 33.8572Z" fill="#BF85BF"/>
<path d="M33.8571 33.8572H23.5714C22.8613 33.8572 22.2857 34.4328 22.2857 35.1429C22.2857 35.853 22.8613 36.4286 23.5714 36.4286H33.8571C34.5672 36.4286 35.1429 35.853 35.1429 35.1429C35.1429 34.4328 34.5672 33.8572 33.8571 33.8572Z" fill="#EA5E5E"/>
<path d="M18.4286 33.8572H8.14286C7.43278 33.8572 6.85714 34.4328 6.85714 35.1429C6.85714 35.853 7.43278 36.4286 8.14286 36.4286H18.4286C19.1387 36.4286 19.7143 35.853 19.7143 35.1429C19.7143 34.4328 19.1387 33.8572 18.4286 33.8572Z" fill="#56B3B4"/>
<path d="M21 44.1428H8.14286C7.43278 44.1428 6.85714 44.7185 6.85714 45.4285C6.85714 46.1386 7.43278 46.7143 8.14286 46.7143H21C21.7101 46.7143 22.2857 46.1386 22.2857 45.4285C22.2857 44.7185 21.7101 44.1428 21 44.1428Z" fill="#BF85BF"/>
<path d="M21 23.5714H8.14286C7.43278 23.5714 6.85714 24.147 6.85714 24.8571C6.85714 25.5672 7.43278 26.1428 8.14286 26.1428H21C21.7101 26.1428 22.2857 25.5672 22.2857 24.8571C22.2857 24.147 21.7101 23.5714 21 23.5714Z" fill="#BF85BF"/>
<path d="M46.7143 8.14282H21C20.2899 8.14282 19.7143 8.71846 19.7143 9.42854C19.7143 10.1386 20.2899 10.7143 21 10.7143H46.7143C47.4244 10.7143 48 10.1386 48 9.42854C48 8.71846 47.4244 8.14282 46.7143 8.14282Z" fill="#F7BA3E"/>
<path d="M15.8571 8.14282H8.14286C7.43278 8.14282 6.85714 8.71846 6.85714 9.42854C6.85714 10.1386 7.43278 10.7143 8.14286 10.7143H15.8571C16.5672 10.7143 17.1429 10.1386 17.1429 9.42854C17.1429 8.71846 16.5672 8.14282 15.8571 8.14282Z" fill="#EA5E5E"/>
<path d="M21 49.2858H18.4286C17.7185 49.2858 17.1429 49.8614 17.1429 50.5715C17.1429 51.2816 17.7185 51.8572 18.4286 51.8572H21C21.7101 51.8572 22.2857 51.2816 22.2857 50.5715C22.2857 49.8614 21.7101 49.2858 21 49.2858Z" fill="#F7BA3E"/>
<path d="M21 18.4286H18.4286C17.7185 18.4286 17.1429 19.0042 17.1429 19.7143C17.1429 20.4244 17.7185 21 18.4286 21H21C21.7101 21 22.2857 20.4244 22.2857 19.7143C22.2857 19.0042 21.7101 18.4286 21 18.4286Z" fill="#56B3B4"/>
<path d="M13.2857 49.2858H8.14286C7.43278 49.2858 6.85714 49.8614 6.85714 50.5715C6.85714 51.2816 7.43278 51.8572 8.14286 51.8572H13.2857C13.9958 51.8572 14.5714 51.2816 14.5714 50.5715C14.5714 49.8614 13.9958 49.2858 13.2857 49.2858Z" fill="#56B3B4"/>
<path d="M13.2857 18.4286H8.14286C7.43278 18.4286 6.85714 19.0042 6.85714 19.7143C6.85714 20.4244 7.43278 21 8.14286 21H13.2857C13.9958 21 14.5714 20.4244 14.5714 19.7143C14.5714 19.0042 13.9958 18.4286 13.2857 18.4286Z" fill="#F7BA3E"/>
<path d="M49.2857 28.7142H28.7143C28.0042 28.7142 27.4286 29.2899 27.4286 29.9999C27.4286 30.71 28.0042 31.2857 28.7143 31.2857H49.2857C49.9958 31.2857 50.5714 30.71 50.5714 29.9999C50.5714 29.2899 49.9958 28.7142 49.2857 28.7142Z" fill="#56B3B4"/>
<path d="M23.5714 28.7142H15.8571C15.1471 28.7142 14.5714 29.2899 14.5714 29.9999C14.5714 30.71 15.1471 31.2857 15.8571 31.2857H23.5714C24.2815 31.2857 24.8571 30.71 24.8571 29.9999C24.8571 29.2899 24.2815 28.7142 23.5714 28.7142Z" fill="#F7BA3E"/>
<path d="M10.7143 28.7142H8.14286C7.43278 28.7142 6.85714 29.2899 6.85714 29.9999C6.85714 30.71 7.43278 31.2857 8.14286 31.2857H10.7143C11.4244 31.2857 12 30.71 12 29.9999C12 29.2899 11.4244 28.7142 10.7143 28.7142Z" fill="#EA5E5E"/>
<path d="M41.5714 13.2858H31.2857C30.5756 13.2858 30 13.8614 30 14.5715C30 15.2816 30.5756 15.8572 31.2857 15.8572H41.5714C42.2815 15.8572 42.8571 15.2816 42.8571 14.5715C42.8571 13.8614 42.2815 13.2858 41.5714 13.2858Z" fill="#BF85BF"/>
<path d="M26.1429 13.2858H8.14286C7.43278 13.2858 6.85714 13.8614 6.85714 14.5715C6.85714 15.2816 7.43278 15.8572 8.14286 15.8572H26.1429C26.8529 15.8572 27.4286 15.2816 27.4286 14.5715C27.4286 13.8614 26.8529 13.2858 26.1429 13.2858Z" fill="#56B3B4"/>
<path d="M39 39H15.8571C15.1471 39 14.5714 39.5756 14.5714 40.2857C14.5714 40.9958 15.1471 41.5714 15.8571 41.5714H39C39.7101 41.5714 40.2857 40.9958 40.2857 40.2857C40.2857 39.5756 39.7101 39 39 39Z" fill="#F7BA3E"/>
<path d="M10.7143 39H8.14286C7.43278 39 6.85714 39.5756 6.85714 40.2857C6.85714 40.9958 7.43278 41.5714 8.14286 41.5714H10.7143C11.4244 41.5714 12 40.9958 12 40.2857C12 39.5756 11.4244 39 10.7143 39Z" fill="#BF85BF"/>
<path d="M51.8571 18.4286H39C38.2899 18.4286 37.7143 19.0042 37.7143 19.7143C37.7143 20.4244 38.2899 21 39 21H51.8571C52.5672 21 53.1429 20.4244 53.1429 19.7143C53.1429 19.0042 52.5672 18.4286 51.8571 18.4286Z" fill="#EA5E5E"/>
<path d="M51.8571 23.5714H39C38.2899 23.5714 37.7143 24.147 37.7143 24.8571C37.7143 25.5672 38.2899 26.1428 39 26.1428H51.8571C52.5672 26.1428 53.1429 25.5672 53.1429 24.8571C53.1429 24.147 52.5672 23.5714 51.8571 23.5714Z" fill="#F7BA3E"/>
<path d="M39 3H8.14286C7.43278 3 6.85714 3.57563 6.85714 4.28571C6.85714 4.99579 7.43278 5.57143 8.14286 5.57143H39C39.7101 5.57143 40.2857 4.99579 40.2857 4.28571C40.2857 3.57563 39.7101 3 39 3Z" fill="#56B3B4"/>
</svg>
