<svg width="60" height="60" viewBox="0 0 60 60" fill="none" xmlns="http://www.w3.org/2000/svg">
<path d="M30 25.275C32.575 25.275 34.675 27.375 34.675 30C34.675 32.5 32.575 34.625 30 34.625C27.425 34.625 25.325 32.5 25.325 30C25.325 27.375 27.425 25.275 30 25.275ZM18.425 50C20 50.95 23.45 49.5 27.425 45.75C26.125 44.275 24.85 42.675 23.65 41C21.6354 40.8072 19.6325 40.5068 17.65 40.1C16.375 45.45 16.85 49.125 18.425 50ZM20.2 35.65L19.475 34.375C19.2 35.1 18.925 35.825 18.75 36.525C19.425 36.675 20.175 36.8 20.95 36.925L20.2 35.65ZM36.55 33.75L38.575 30L36.55 26.25C35.8 24.925 35 23.75 34.275 22.575C32.925 22.5 31.5 22.5 30 22.5C28.5 22.5 27.075 22.5 25.725 22.575C25 23.75 24.2 24.925 23.45 26.25L21.425 30L23.45 33.75C24.2 35.075 25 36.25 25.725 37.425C27.075 37.5 28.5 37.5 30 37.5C31.5 37.5 32.925 37.5 34.275 37.425C35 36.25 35.8 35.075 36.55 33.75ZM30 16.95C29.525 17.5 29.025 18.075 28.525 18.75H31.475C30.975 18.075 30.475 17.5 30 16.95ZM30 43.05C30.475 42.5 30.975 41.925 31.475 41.25H28.525C29.025 41.925 29.525 42.5 30 43.05ZM41.55 9.99998C40 9.04998 36.55 10.5 32.575 14.25C33.875 15.725 35.15 17.325 36.35 19C38.4 19.2 40.425 19.5 42.35 19.9C43.625 14.55 43.15 10.875 41.55 9.99998ZM39.8 24.35L40.525 25.625C40.8 24.9 41.075 24.175 41.25 23.475C40.575 23.325 39.825 23.2 39.05 23.075L39.8 24.35ZM43.425 6.72498C47.1 8.82498 47.5 14.35 45.95 20.8C52.3 22.675 56.875 25.775 56.875 30C56.875 34.225 52.3 37.325 45.95 39.2C47.5 45.65 47.1 51.175 43.425 53.275C39.775 55.375 34.8 52.975 30 48.4C25.2 52.975 20.225 55.375 16.55 53.275C12.9 51.175 12.5 45.65 14.05 39.2C7.7 37.325 3.125 34.225 3.125 30C3.125 25.775 7.7 22.675 14.05 20.8C12.5 14.35 12.9 8.82498 16.55 6.72498C20.225 4.62498 25.2 7.02498 30 11.6C34.8 7.02498 39.775 4.62498 43.425 6.72498ZM42.7 30C43.55 31.875 44.3 33.75 44.925 35.65C50.175 34.075 53.125 31.825 53.125 30C53.125 28.175 50.175 25.925 44.925 24.35C44.3 26.25 43.55 28.125 42.7 30ZM17.3 30C16.45 28.125 15.7 26.25 15.075 24.35C9.825 25.925 6.875 28.175 6.875 30C6.875 31.825 9.825 34.075 15.075 35.65C15.7 33.75 16.45 31.875 17.3 30ZM39.8 35.65L39.05 36.925C39.825 36.8 40.575 36.675 41.25 36.525C41.075 35.825 40.8 35.1 40.525 34.375L39.8 35.65ZM32.575 45.75C36.55 49.5 40 50.95 41.55 50C43.15 49.125 43.625 45.45 42.35 40.1C40.425 40.5 38.4 40.8 36.35 41C35.15 42.675 33.875 44.275 32.575 45.75ZM20.2 24.35L20.95 23.075C20.175 23.2 19.425 23.325 18.75 23.475C18.925 24.175 19.2 24.9 19.475 25.625L20.2 24.35ZM27.425 14.25C23.45 10.5 20 9.04998 18.425 9.99998C16.85 10.875 16.375 14.55 17.65 19.9C19.6325 19.4932 21.6354 19.1928 23.65 19C24.85 17.325 26.125 15.725 27.425 14.25Z" fill="#00BCD4"/>
</svg>
