<svg width="60" height="60" viewBox="0 0 60 60" fill="none" xmlns="http://www.w3.org/2000/svg">
<path fill-rule="evenodd" clip-rule="evenodd" d="M5.51999 5.52002V54.48H54.48V5.52002H5.51999ZM42.7224 29.3004V29.3011C43.1918 29.3026 43.7255 29.3267 44.1267 29.3703C45.761 29.547 47.0337 30.2521 48.1165 31.5802C48.6557 32.2417 48.8401 32.5312 48.8009 32.655C48.7756 32.7349 48.4056 32.9999 47.2293 33.7806C46.0739 34.5478 45.7017 34.7776 45.6153 34.7776C45.5276 34.7776 45.345 34.5897 45.0818 34.2288C44.5748 33.5341 44.0573 33.2171 43.2572 33.1114C42.3968 32.9974 41.625 33.2686 41.247 33.8179C40.9238 34.2874 40.875 35.0427 41.1318 35.5915C41.4294 36.2272 41.9679 36.5787 44.0318 37.4836C46.4121 38.5273 47.6184 39.2417 48.4969 40.1284C49.443 41.0831 49.9223 42.1854 50.0695 43.7447C50.1414 44.5048 50.0535 45.4055 49.8361 46.1379C49.3027 47.9332 47.8633 49.2478 45.7537 49.8665C45.1705 50.0375 44.6279 50.1396 44.0911 50.179C43.2716 50.2393 42.0987 50.2061 41.3928 50.1034C39.6067 49.8431 37.5905 48.8038 36.5851 47.6254C36.0915 47.0469 35.4614 46.0948 35.4614 45.9274C35.4614 45.8465 35.5015 45.8005 35.6601 45.6997C36.1308 45.4007 38.8274 43.8592 38.8797 43.8592C38.9114 43.8592 39.0523 44.0251 39.1927 44.2281C39.5108 44.6874 40.2931 45.4769 40.6908 45.7403C41.0156 45.9555 41.4311 46.1281 41.9243 46.2528C42.2067 46.3233 42.3563 46.3359 42.9726 46.3359C43.6023 46.3356 43.7315 46.3251 44.0132 46.2493C44.7584 46.0488 45.3401 45.6337 45.5865 45.1269C45.6945 44.9079 45.6967 44.8805 45.6967 44.3493V43.7985L45.5642 43.5357C45.2435 42.8989 44.5523 42.462 42.3668 41.5155C41.363 41.0806 40.1336 40.4675 39.6536 40.1625C38.5581 39.4663 37.7989 38.6705 37.3007 37.6963C36.8051 36.7276 36.7313 36.367 36.7301 34.9103C36.7289 33.7699 36.7269 33.784 36.963 33.0562C37.1772 32.3957 37.6157 31.6579 38.0997 31.1434C39.0657 30.1165 40.4773 29.4565 41.9885 29.3253C42.1817 29.3069 42.4406 29.2998 42.7223 29.3007L42.7224 29.3004ZM29.7192 29.5257H29.7197C32.63 29.5271 34.2984 29.5372 34.3251 29.554C34.3755 29.5852 34.3819 29.8385 34.3819 31.455V33.3199L31.4778 33.3305L28.5737 33.3411V41.5866C28.5737 46.1218 28.5644 49.8592 28.5518 49.8922C28.5313 49.9477 28.3079 49.9519 26.4182 49.9519H24.3078L24.2859 49.8667C24.2719 49.8199 24.2616 46.0823 24.2613 41.5611L24.2606 33.3406L21.3566 33.3303L18.4524 33.3197V31.4769C18.4524 30.0153 18.4625 29.6238 18.5015 29.5849C18.5414 29.5438 20.0235 29.5332 26.4097 29.5269C27.6409 29.5257 28.7491 29.5251 29.7193 29.5257H29.7192Z" fill="#0288D1"/>
</svg>
