<svg width="60" height="60" viewBox="0 0 60 60" fill="none" xmlns="http://www.w3.org/2000/svg">
<path d="M51.7035 44.9379C49.1402 45.5466 47.8426 46.1073 44.6704 48.174C39.7041 51.378 34.2892 52.8681 34.2892 52.8681C34.2892 52.8681 33.8406 53.5409 32.543 53.8452C30.3002 54.39 21.8574 54.8547 21.0884 54.8706C19.0217 54.8866 17.7561 54.342 17.4035 53.4927C16.3304 50.9297 18.9416 49.8083 18.9416 49.8083C18.9416 49.8083 18.365 49.4557 18.0286 49.1355C17.7242 48.8311 17.4037 48.2222 17.3075 48.4465C16.9072 49.4237 16.6988 51.8108 15.6255 52.8844C14.1515 54.3741 11.364 53.8775 9.71401 53.0125C7.90367 52.0512 9.84229 49.7923 9.84229 49.7923C9.84229 49.7923 8.86491 50.369 8.07994 49.1834C7.37505 48.0941 6.71815 46.2358 6.89443 43.9448C7.1187 41.3015 10.0345 38.7703 10.0345 38.7703C10.0345 38.7703 9.5218 34.9097 11.2041 30.9523C12.726 27.3478 16.8273 24.4481 16.8273 24.4481C16.8273 24.4481 13.3829 20.6516 14.6646 17.207C15.4976 14.9642 15.834 14.9801 16.1063 14.8839C17.0675 14.5157 17.9967 14.1151 18.6857 13.362C22.1301 9.64531 26.5196 10.3502 26.5196 10.3502C26.5196 10.3502 28.5704 4.05434 30.4926 5.28786C31.0854 5.67248 33.216 10.4143 33.216 10.4143C33.216 10.4143 35.4908 9.08462 35.7472 9.58138C37.1251 12.2566 37.2853 17.3673 36.6764 20.4753C35.6512 25.6018 33.0877 28.3574 32.0626 30.0875C31.8224 30.4881 34.818 31.7537 36.7084 36.9923C38.4546 41.7823 36.9008 45.8036 37.1731 46.2521C37.2211 46.3322 37.2373 46.3643 37.2373 46.3643C37.2373 46.3643 39.2398 46.5244 43.2608 44.0412C45.4076 42.7115 47.9549 41.2217 50.8546 41.1896C53.658 41.1416 53.8022 44.4418 51.7037 44.9383L51.7035 44.9379Z" fill="#0288D1"/>
</svg>
